<svg width="1527" height="469" viewBox="0 0 1527 469" fill="none" xmlns="http://www.w3.org/2000/svg">
<path d="M1514.69 274.523C1522.54 274.523 1526.47 279.106 1526.47 288.274V317.248C1526.47 325.106 1525.33 330.835 1523.04 334.437C1521.07 338.038 1516.32 341.312 1508.79 344.259C1497.33 348.842 1482.27 351.134 1463.61 351.134C1398.79 351.134 1366.38 315.939 1366.38 245.548V161.079H1345.75C1336.58 161.079 1329.87 159.115 1325.61 155.186C1321.69 151.257 1319.72 144.546 1319.72 135.051V119.336C1319.72 109.841 1321.69 103.13 1325.61 99.2008C1329.87 95.272 1336.58 93.3076 1345.75 93.3076H1366.38V55.4931C1366.38 46.3259 1368.34 39.7779 1372.27 35.8491C1376.2 31.5929 1382.91 29.4648 1392.4 29.4648H1418.92C1428.42 29.4648 1435.13 31.5929 1439.06 35.8491C1442.99 39.7779 1444.95 46.3259 1444.95 55.4931V93.3076H1495.04C1504.21 93.3076 1510.76 95.272 1514.69 99.2008C1518.94 103.13 1521.07 109.841 1521.07 119.336V135.051C1521.07 144.546 1518.94 151.257 1514.69 155.186C1510.76 159.115 1504.21 161.079 1495.04 161.079H1444.95V236.217C1444.95 252.26 1447.73 263.555 1453.3 270.103C1459.19 276.324 1468.69 279.434 1481.78 279.434C1488.33 279.434 1494.88 278.615 1501.43 276.978C1508.3 275.341 1512.72 274.523 1514.69 274.523Z" fill="#027FE3"/>
<path d="M1186.31 352.119C1168.95 352.119 1151.77 350.482 1134.74 347.208C1117.72 343.934 1105.6 340.333 1098.4 336.404C1089.56 331.493 1085.14 324.127 1085.14 314.305V290.241C1085.14 278.127 1090.38 272.07 1100.85 272.07C1102.82 272.07 1113.13 275.017 1131.79 280.91C1150.46 286.476 1170.92 289.259 1193.18 289.259C1212.5 289.259 1222.16 282.875 1222.16 270.106C1222.16 263.885 1219.54 259.465 1214.3 256.846C1209.06 254.227 1198.75 251.444 1183.36 248.498L1167.64 245.551C1140.8 240.64 1120.17 232.619 1105.77 221.487C1091.69 210.356 1084.65 193.331 1084.65 170.413C1084.65 139.965 1094.8 118.193 1115.1 105.097C1135.72 91.6736 1162.08 84.9619 1194.16 84.9619C1229.85 84.9619 1258.01 89.8729 1278.63 99.6949C1287.47 103.951 1291.89 111.318 1291.89 121.794V145.858C1291.89 157.317 1286.65 163.047 1276.18 163.047C1272.58 163.047 1261.44 160.591 1242.78 155.68C1224.45 150.442 1207.91 147.822 1193.18 147.822C1173.86 147.822 1164.21 153.388 1164.21 164.52C1164.21 170.086 1166.66 174.178 1171.57 176.797C1176.48 179.089 1186.31 181.545 1201.04 184.164L1214.79 186.619C1242.95 191.53 1264.39 199.715 1279.12 211.174C1294.18 222.633 1301.71 241.622 1301.71 268.142C1301.71 297.28 1291.07 318.561 1269.79 331.984C1248.51 345.408 1220.68 352.119 1186.31 352.119Z" fill="#027FE3"/>
<path d="M1007.7 93.3101C1017.19 93.3101 1023.9 95.4382 1027.83 99.6944C1031.76 103.623 1033.72 110.171 1033.72 119.338V329.528C1033.72 422.51 985.432 469 888.85 469C852.181 469 824.843 464.253 806.836 454.758C800.943 451.812 796.85 448.374 794.559 444.445C792.267 440.844 791.121 435.442 791.121 428.239V401.229C791.121 388.46 796.359 382.076 806.836 382.076C808.801 382.076 818.131 384.695 834.829 389.933C851.853 395.499 871.006 398.282 892.287 398.282C915.205 398.282 931.739 392.88 941.888 382.076C952.037 371.599 957.112 355.393 957.112 333.457V317.251C941.397 334.93 917.824 343.77 886.394 343.77C856.273 343.77 830.573 333.621 809.292 313.322C785.391 290.404 773.441 254.554 773.441 205.772V119.338C773.441 109.844 775.406 103.132 779.335 99.2032C783.591 95.2745 790.302 93.3101 799.47 93.3101H825.989C835.156 93.3101 841.704 95.2745 845.633 99.2032C849.889 103.132 852.017 109.844 852.017 119.338V198.405C852.017 225.907 857.092 244.896 867.241 255.372C875.754 264.54 887.54 269.123 902.6 269.123C918.315 269.123 930.92 263.885 940.415 253.408C950.237 242.604 955.148 225.088 955.148 200.861V119.338C955.148 110.171 957.112 103.623 961.041 99.6944C964.97 95.4382 971.681 93.3101 981.176 93.3101H1007.7Z" fill="#027FE3"/>
<path d="M698.092 93.3101C707.586 93.3101 714.298 95.4382 718.227 99.6944C722.156 103.623 724.12 110.171 724.12 119.338V219.522C724.12 261.429 714.462 294.333 695.145 318.233C675.829 341.806 648.655 353.592 613.623 353.592C588.413 353.592 568.442 349.5 553.709 341.315C538.976 333.13 527.026 320.852 517.859 304.482C508.692 320.852 496.742 333.13 482.009 341.315C467.276 349.5 447.304 353.592 422.095 353.592C387.063 353.592 359.889 341.806 340.572 318.233C321.256 294.333 311.598 261.429 311.598 219.522V119.338C311.598 109.844 313.562 103.132 317.491 99.2032C321.747 95.2745 328.459 93.3101 337.626 93.3101H364.145C373.312 93.3101 379.86 95.2745 383.789 99.2032C388.045 103.132 390.173 109.844 390.173 119.338V213.138C390.173 257.664 404.906 279.927 434.372 279.927C463.838 279.927 478.571 257.664 478.571 213.138V119.338C478.571 109.844 480.535 103.132 484.464 99.2032C488.72 95.2745 495.432 93.3101 504.599 93.3101H531.119C540.286 93.3101 546.834 95.2745 550.762 99.2032C555.019 103.132 557.147 109.844 557.147 119.338V213.138C557.147 257.664 571.88 279.927 601.346 279.927C630.811 279.927 645.544 257.664 645.544 213.138V119.338C645.544 110.171 647.509 103.623 651.438 99.6944C655.366 95.4382 662.078 93.3101 671.573 93.3101H698.092Z" fill="#027FE3"/>
<path d="M300.061 5.89319C296.132 1.9644 289.584 0 280.417 0H26.0282C16.861 0 10.1494 1.9644 5.89318 5.89319C1.96439 9.82196 0 16.5336 0 26.0282V48.6187C0 58.1133 1.96439 64.825 5.89318 68.7538C10.1494 72.6825 16.861 74.6469 26.0282 74.6469H111.97V317.741C106.591 418.482 169.143 464.001 229.295 463.532C232.873 461.533 240.237 456.809 244.908 452.134C245.837 451.204 245.306 449.709 244.008 449.323C235.367 446.752 229.881 443.398 227.027 441.002C226.003 440.144 226.507 438.707 227.798 438.338C236.823 435.758 247.095 429.909 252.734 426.241C253.715 425.604 253.79 424.263 252.926 423.466C247.826 418.761 239.201 410.1 234.306 402.746C233.761 401.927 234.029 400.86 234.943 400.461C240.016 398.243 249.76 396.663 255.772 395.94C256.871 395.808 257.621 394.816 257.261 393.808C254.778 386.86 247.306 376.46 243.444 372.468C211.36 360.792 194.477 334.449 194.475 317.741V74.6469H280.417C289.584 74.6469 296.132 72.6825 300.061 68.7538C304.317 64.825 306.445 58.1133 306.445 48.6187V26.0282C306.445 16.5336 304.317 9.82196 300.061 5.89319Z" fill="#027FE3"/>
<path d="M243.444 372.468C247.306 376.46 254.778 386.86 257.261 393.808C257.621 394.816 256.871 395.808 255.772 395.94C249.76 396.663 240.016 398.243 234.943 400.461C234.029 400.86 233.761 401.927 234.306 402.746C239.201 410.1 247.826 418.761 252.926 423.466C253.79 424.263 253.715 425.604 252.734 426.241C247.095 429.909 236.823 435.758 227.798 438.338C226.507 438.707 226.003 440.144 227.027 441.002C229.881 443.398 235.367 446.752 244.008 449.323C245.306 449.709 245.837 451.204 244.908 452.134C240.237 456.809 232.873 461.533 229.295 463.532C280.017 463.136 329.032 430.041 334.175 369.785C293.922 381.467 264.413 380.1 243.444 372.468Z" fill="#014581"/>
</svg>
