<svg width="1672" height="2745" viewBox="0 0 1672 2745" fill="none" xmlns="http://www.w3.org/2000/svg">
<path fill-rule="evenodd" clip-rule="evenodd" d="M1125.34 2310.47C875.362 2225.67 788.492 2027.76 776.305 1939.41C848.014 1916.46 1042.22 1887.77 1245.36 1956.69C1305.43 1977.07 1359.67 2003.74 1407.41 2032.8C1420.06 2046.12 1445.26 2077.46 1453.49 2100.92C1454.69 2104.33 1452.27 2107.75 1448.7 2108.27C1429.18 2111.12 1397.55 2117.13 1381.11 2125C1378.15 2126.42 1377.3 2130.07 1379.1 2132.82C1395.18 2157.51 1423.41 2186.4 1440.1 2202.07C1442.92 2204.72 1442.71 2209.28 1439.54 2211.52C1421.29 2224.36 1388.05 2244.92 1358.78 2254.28C1354.59 2255.62 1352.99 2260.54 1356.33 2263.39C1365.66 2271.35 1383.57 2282.4 1411.72 2290.58C1415.95 2291.81 1417.71 2296.86 1414.71 2300.08C1399.64 2316.28 1375.21 2332.83 1363.63 2339.86C1293.58 2346.74 1213.21 2340.28 1125.34 2310.47Z" fill="#EE6707"/>
<path d="M1453.49 2100.92C1445.26 2077.46 1420.06 2046.12 1407.41 2032.8C1492.67 2084.71 1557.15 2144.25 1596.83 2189.15C1616.04 2210.91 1613.12 2243.54 1589.24 2260.05C1539.43 2294.49 1461.63 2330.23 1363.63 2339.86C1375.21 2332.83 1399.64 2316.28 1414.71 2300.08C1417.71 2296.86 1415.95 2291.81 1411.72 2290.58C1383.57 2282.4 1365.66 2271.35 1356.33 2263.39C1352.99 2260.54 1354.59 2255.62 1358.78 2254.28C1388.05 2244.92 1421.29 2224.36 1439.54 2211.52C1442.71 2209.28 1442.92 2204.72 1440.1 2202.07C1423.41 2186.4 1395.18 2157.51 1379.1 2132.82C1377.3 2130.07 1378.15 2126.42 1381.11 2125C1397.55 2117.13 1429.18 2111.12 1448.7 2108.27C1452.27 2107.75 1454.69 2104.33 1453.49 2100.92Z" fill="#FDD6A1"/>
<path d="M1035.17 1167L1063.11 1177.76C1205.13 1232.45 1317.82 1344.03 1373.91 1485.5L1424.93 1614.22" stroke="#EE6707" stroke-width="215.357" stroke-linecap="round"/>
<path d="M1533.7 1540.25L1296.31 1641.28C1285.95 1621.69 1278.94 1608.52 1273.17 1596.82L1517.7 1492.76C1522.13 1505.02 1526.76 1519.2 1533.7 1540.25Z" fill="#027FE3"/>
<path d="M1232.56 1491.48L1469.95 1390.45C1478.64 1406.89 1486.29 1421.89 1493.24 1436.28L1249.44 1540.04C1243.89 1525.05 1238.38 1509.14 1232.56 1491.48Z" fill="#027FE3"/>
<path d="M1249.44 1540.04L1493.24 1436.28C1505.27 1461.17 1511.27 1474.95 1517.7 1492.76L1273.17 1596.82C1264.8 1579.85 1259.04 1565.97 1249.44 1540.04Z" fill="#014581"/>
<path d="M502.738 1167L474.796 1177.76C332.774 1232.45 220.088 1344.03 164.003 1485.5L112.974 1614.22" stroke="#EE6707" stroke-width="215.357" stroke-linecap="round"/>
<path d="M4.21614 1540.25L241.61 1641.28C251.965 1621.69 258.973 1608.52 264.742 1596.82L20.2134 1492.76C15.7837 1505.02 11.1542 1519.2 4.21614 1540.25Z" fill="#027FE3"/>
<path d="M305.355 1491.48L67.9619 1390.45C59.2765 1406.89 51.629 1421.89 44.6764 1436.28L288.477 1540.04C294.024 1525.05 299.537 1509.14 305.355 1491.48Z" fill="#027FE3"/>
<path d="M288.477 1540.04L44.6764 1436.28C32.6479 1461.17 26.6411 1474.95 20.2134 1492.76L264.742 1596.82C273.114 1579.85 278.878 1565.97 288.477 1540.04Z" fill="#014581"/>
<path d="M488.081 1045.62C416.41 1374.15 416.41 1607.11 406.447 1788.29C524.312 1813.78 697.146 1825.46 768.829 1828.12C840.513 1825.46 1013.35 1813.78 1131.21 1788.29C1121.25 1607.1 1121.25 1374.15 1049.58 1045.62C1028.72 1052.91 1006.59 1059 984.139 1064.07C965.202 1165.76 876.006 1242.74 768.829 1242.74C661.653 1242.74 572.457 1165.76 553.52 1064.07C531.069 1059 508.935 1052.91 488.081 1045.62Z" fill="#027FE3"/>
<path d="M553.52 1064.07C572.457 1165.76 661.653 1242.74 768.829 1242.74C876.006 1242.74 965.202 1165.76 984.139 1064.07C964.036 1068.61 943.679 1072.34 923.758 1075.37C902.145 1140.23 840.948 1186.99 768.829 1186.99C696.711 1186.99 635.514 1140.23 613.901 1075.38C593.98 1072.34 573.623 1068.61 553.52 1064.07Z" fill="#014581"/>
<path d="M768.829 1828.12C697.146 1825.46 524.312 1813.78 406.447 1788.29C399.149 1909.75 382.562 2156.24 374.597 2170.58C387.767 2174.5 401.07 2177.97 414.419 2181.03C524.031 2206.12 636.783 2203.37 705.116 2195.43C723.072 2193.34 737.96 2190.89 748.919 2188.5L756.883 2021.25H768.829L780.776 2021.25L788.74 2188.5C799.699 2190.89 814.587 2193.34 832.543 2195.42C900.875 2203.37 1013.63 2206.12 1123.24 2181.03C1136.59 2177.97 1149.89 2174.5 1163.06 2170.58C1155.1 2156.24 1138.51 1909.75 1131.21 1788.29C1013.35 1813.78 840.513 1825.46 768.829 1828.12Z" fill="#014581"/>
<path d="M768.829 1087.44C737.049 1087.84 678.783 1085.27 613.901 1075.38C635.514 1140.23 696.711 1186.99 768.829 1186.99C840.948 1186.99 902.145 1140.23 923.758 1075.37C858.876 1085.27 800.61 1087.84 768.829 1087.44Z" fill="#EE6707"/>
<path d="M1123.24 2181.03C1013.63 2206.12 900.875 2203.37 832.543 2195.42C833.266 2231.17 837.292 2306.37 842.282 2389.6C972.722 2423.05 1086.93 2398.22 1127.73 2381.63L1123.24 2181.03Z" fill="#EE6707"/>
<path d="M705.116 2195.43C636.783 2203.37 524.031 2206.12 414.419 2181.03L409.93 2381.63C450.729 2398.23 564.937 2423.05 695.377 2389.6C700.367 2306.38 704.393 2231.17 705.116 2195.43Z" fill="#EE6707"/>
<path d="M406.454 2536.94C373.934 2539.59 306.901 2562.42 298.937 2632.51V2684.28C297.92 2699.52 309.198 2726.44 354.571 2738.22C353.167 2711.31 354.853 2686.33 357.566 2666.36C360.323 2646.07 364.247 2630.2 367.417 2622.67C369.55 2617.61 375.385 2615.23 380.452 2617.36C385.519 2619.5 387.897 2625.33 385.764 2630.4C383.624 2635.48 379.98 2649.28 377.294 2669.04C374.646 2688.53 373.034 2713.1 374.584 2739.44C374.636 2740.33 374.57 2741.2 374.399 2742.03C383.927 2743.3 394.574 2744.01 406.454 2744.01H466.586C465.381 2717.93 467.048 2693.76 469.688 2674.33C472.445 2654.04 476.369 2638.17 479.539 2630.64C481.672 2625.57 487.507 2623.19 492.574 2625.33C497.641 2627.46 500.019 2633.3 497.886 2638.36C495.746 2643.44 492.102 2657.24 489.416 2677.01C486.882 2695.66 485.297 2718.96 486.523 2744.01H587.643C617.509 2745.34 677.241 2732.46 677.241 2670.34C681.956 2601.78 689.366 2489.87 695.377 2389.6C564.937 2423.05 450.729 2398.23 409.93 2381.63L406.454 2536.94Z" fill="#7F3113"/>
<path d="M1238.72 2632.51C1230.76 2562.42 1163.73 2539.59 1131.2 2536.94L1127.73 2381.63C1086.93 2398.22 972.722 2423.05 842.282 2389.6C848.293 2489.87 855.703 2601.78 860.418 2670.34C860.418 2732.46 920.15 2745.33 950.016 2744.01H1051.14C1052.36 2718.95 1050.78 2695.65 1048.24 2677C1045.56 2657.24 1041.91 2643.44 1039.77 2638.36C1037.64 2633.29 1040.02 2627.46 1045.08 2625.32C1050.15 2623.19 1055.99 2625.57 1058.12 2630.64C1061.29 2638.17 1065.21 2654.03 1067.97 2674.32C1070.61 2693.76 1072.28 2717.93 1071.07 2744.01H1131.2C1143.09 2744.01 1153.73 2743.3 1163.26 2742.03C1163.09 2741.2 1163.02 2740.33 1163.08 2739.44C1164.62 2713.1 1163.01 2688.53 1160.36 2669.04C1157.68 2649.28 1154.03 2635.48 1151.9 2630.4C1149.76 2625.33 1152.14 2619.49 1157.21 2617.36C1162.27 2615.23 1168.11 2617.61 1170.24 2622.67C1173.41 2630.2 1177.34 2646.07 1180.09 2666.36C1182.81 2686.33 1184.49 2711.31 1183.09 2738.21C1228.46 2726.43 1239.74 2699.52 1238.72 2684.27V2632.51Z" fill="#7F3113"/>
<path d="M380.452 2617.36C375.385 2615.23 369.55 2617.61 367.417 2622.67C364.247 2630.2 360.323 2646.07 357.566 2666.36C354.853 2686.33 353.167 2711.31 354.571 2738.22C360.568 2739.77 367.161 2741.06 374.399 2742.03C374.57 2741.2 374.636 2740.33 374.584 2739.44C373.034 2713.1 374.646 2688.53 377.294 2669.04C379.98 2649.28 383.624 2635.48 385.764 2630.4C387.897 2625.33 385.519 2619.5 380.452 2617.36Z" fill="#44190E"/>
<path d="M492.574 2625.33C487.507 2623.19 481.672 2625.57 479.539 2630.64C476.369 2638.17 472.445 2654.04 469.688 2674.33C467.048 2693.76 465.381 2717.93 466.586 2744.01H486.523C485.297 2718.96 486.882 2695.66 489.416 2677.01C492.102 2657.24 495.746 2643.44 497.886 2638.36C500.019 2633.3 497.641 2627.46 492.574 2625.33Z" fill="#44190E"/>
<path d="M1058.12 2630.64C1055.99 2625.57 1050.15 2623.19 1045.08 2625.32C1040.02 2627.46 1037.64 2633.29 1039.77 2638.36C1041.91 2643.44 1045.56 2657.24 1048.24 2677C1050.78 2695.65 1052.36 2718.95 1051.14 2744.01H1071.07C1072.28 2717.93 1070.61 2693.76 1067.97 2674.32C1065.21 2654.03 1061.29 2638.17 1058.12 2630.64Z" fill="#44190E"/>
<path d="M1170.24 2622.67C1168.11 2617.61 1162.27 2615.23 1157.21 2617.36C1152.14 2619.49 1149.76 2625.33 1151.9 2630.4C1154.03 2635.48 1157.68 2649.28 1160.36 2669.04C1163.01 2688.53 1164.62 2713.1 1163.08 2739.44C1163.02 2740.33 1163.09 2741.2 1163.26 2742.03C1170.5 2741.06 1177.09 2739.77 1183.09 2738.21C1184.49 2711.31 1182.81 2686.33 1180.09 2666.36C1177.34 2646.07 1173.41 2630.2 1170.24 2622.67Z" fill="#44190E"/>
<path d="M850.105 1346.58C847.709 1344.2 843.715 1343 838.123 1343H682.956C677.365 1343 673.271 1344.2 670.675 1346.58C668.278 1348.97 667.08 1353.06 667.08 1358.83V1372.57C667.08 1378.34 668.278 1382.42 670.675 1384.81C673.271 1387.2 677.365 1388.4 682.956 1388.4H735.378V1536.23C732.096 1597.5 770.25 1625.18 806.941 1624.9C809.123 1623.68 813.615 1620.81 816.464 1617.96C817.031 1617.4 816.707 1616.49 815.915 1616.25C810.645 1614.69 807.298 1612.65 805.557 1611.19C804.933 1610.67 805.24 1609.8 806.028 1609.57C811.533 1608.01 817.798 1604.45 821.238 1602.22C821.836 1601.83 821.882 1601.01 821.355 1600.53C818.244 1597.67 812.983 1592.4 809.998 1587.93C809.665 1587.43 809.829 1586.78 810.386 1586.54C813.481 1585.19 819.424 1584.23 823.091 1583.79C823.761 1583.71 824.219 1583.11 823.999 1582.49C822.485 1578.27 817.927 1571.94 815.571 1569.52C796.001 1562.41 785.703 1546.39 785.702 1536.23V1388.4H838.123C843.715 1388.4 847.709 1387.2 850.105 1384.81C852.702 1382.42 854 1378.34 854 1372.57V1358.83C854 1353.06 852.702 1348.97 850.105 1346.58Z" fill="white" fill-opacity="0.3"/>
<path d="M815.571 1569.52C817.927 1571.94 822.485 1578.27 823.999 1582.49C824.219 1583.11 823.761 1583.71 823.091 1583.79C819.424 1584.23 813.481 1585.19 810.386 1586.54C809.829 1586.78 809.665 1587.43 809.998 1587.93C812.983 1592.4 818.244 1597.67 821.355 1600.53C821.882 1601.01 821.836 1601.83 821.238 1602.22C817.798 1604.45 811.533 1608.01 806.028 1609.57C805.24 1609.8 804.933 1610.67 805.557 1611.19C807.298 1612.65 810.645 1614.69 815.915 1616.25C816.707 1616.49 817.031 1617.4 816.464 1617.96C813.615 1620.81 809.123 1623.68 806.941 1624.9C837.879 1624.66 867.777 1604.53 870.914 1567.88C846.361 1574.99 828.361 1574.16 815.571 1569.52Z" fill="white" fill-opacity="0.6"/>
<path d="M208.589 309.003C223.572 419.379 254.215 527.984 280.223 577.192C298.837 551.804 319.352 526.675 341.793 502.52C320.944 452.292 293.195 363.226 276.175 279.959L208.589 309.003Z" fill="#EE6707"/>
<path d="M650.03 315.128C605.937 257.917 565.709 210.441 529.197 171.227L429.442 214.095C455.803 252.809 485.599 302.105 518.894 364.429C559.251 343.162 602.946 326.205 650.03 315.128Z" fill="#EE6707"/>
<path d="M1024.61 171.227C988.096 210.44 947.867 257.917 903.774 315.127C950.859 326.204 994.554 343.161 1034.91 364.428C1068.21 302.104 1098 252.808 1124.36 214.095L1024.61 171.227Z" fill="#EE6707"/>
<path d="M1273.58 577.191C1299.59 527.984 1330.23 419.378 1345.22 309.002L1277.63 279.958C1260.61 363.226 1232.86 452.291 1212.01 502.519C1234.45 526.675 1254.97 551.804 1273.58 577.191Z" fill="#EE6707"/>
<path d="M248.091 10.3138C194.763 55.6456 191.548 183.469 208.589 309.003L276.175 279.959C257.913 190.615 252.003 107.947 280.223 87.0898C296.673 74.9322 345.734 91.1575 429.442 214.095L529.197 171.227C363.715 -6.49893 274.586 -14.4869 248.091 10.3138Z" fill="#44190E"/>
<path d="M1345.22 309.002C1362.26 183.469 1359.04 55.645 1305.71 10.3133C1279.22 -14.4874 1190.09 -6.4995 1024.61 171.227L1124.36 214.095C1208.07 91.157 1257.13 74.9316 1273.58 87.0892C1301.8 107.946 1295.89 190.615 1277.63 279.958L1345.22 309.002Z" fill="#44190E"/>
<path d="M1034.91 364.428C1103.5 400.575 1162.45 449.173 1212.01 502.519C1232.86 452.291 1260.61 363.226 1277.63 279.958C1295.89 190.615 1301.8 107.946 1273.58 87.0892C1257.13 74.9316 1208.07 91.157 1124.36 214.095C1098 252.808 1068.21 302.104 1034.91 364.428Z" fill="#FDD6A1"/>
<path d="M341.793 502.52C391.352 449.174 450.301 400.575 518.894 364.429C485.599 302.105 455.803 252.809 429.442 214.095C345.734 91.1575 296.673 74.9322 280.223 87.0898C252.003 107.947 257.913 190.615 276.175 279.959C293.195 363.226 320.944 452.292 341.793 502.52Z" fill="#FDD6A1"/>
<path d="M280.223 577.192C217.964 662.107 176.983 749.909 156.402 813.829C340.107 843.058 447.482 844.462 622.934 818.041C639.388 815.563 652.48 803.343 657.759 787.563C669.482 752.521 684.083 731.606 715.778 713.886C753.298 692.911 800.507 692.911 838.026 713.886C869.716 731.602 884.317 752.513 896.039 787.543C901.322 803.332 914.43 815.557 930.895 818.027C1107.09 844.462 1213.86 843.063 1397.4 813.828C1376.82 749.909 1335.84 662.106 1273.58 577.191C1254.97 551.804 1234.45 526.675 1212.01 502.519C1162.45 449.173 1103.5 400.575 1034.91 364.428C994.554 343.161 950.859 326.204 903.774 315.127C883.903 310.453 863.429 306.825 842.346 304.363C821.147 301.887 799.334 300.589 776.902 300.589C755.632 300.589 734.917 301.756 714.755 303.988C692.509 306.451 670.936 310.21 650.03 315.128C602.946 326.205 559.251 343.162 518.894 364.429C450.301 400.575 391.352 449.174 341.793 502.52C319.352 526.675 298.837 551.804 280.223 577.192Z" fill="#EE6707"/>
<path d="M156.402 813.829C239.918 909.886 480.939 1102 776.902 1102C1072.87 1102 1313.89 909.886 1397.4 813.828C1213.86 843.063 1107.09 844.462 930.895 818.027C914.43 815.557 901.322 803.332 896.039 787.543C884.317 752.513 869.716 731.602 838.026 713.886C800.507 692.911 753.298 692.911 715.778 713.886C684.083 731.606 669.482 752.521 657.759 787.563C652.48 803.343 639.388 815.563 622.934 818.041C447.482 844.462 340.107 843.058 156.402 813.829Z" fill="#FDD6A1"/>
<path d="M802.176 242.106C788.476 230.86 738.084 278.832 714.755 303.988C734.917 301.756 755.632 300.589 776.902 300.589C799.334 300.589 821.147 301.887 842.346 304.363C854.259 292.525 852.804 273.921 839.402 274.661C830.77 275.137 813.191 281.722 800.969 286.844C798.931 287.698 796.82 285.171 797.976 283.308C805.878 270.578 813.541 251.437 802.176 242.106Z" fill="#EE6707"/>
<rect x="882.475" y="515.069" width="206.247" height="263.07" rx="103.123" fill="white"/>
<rect x="917.945" y="570.314" width="101.153" height="151.265" rx="50.5764" fill="black"/>
<ellipse cx="924.514" cy="599.251" rx="31.5281" ry="31.5684" fill="white"/>
<rect x="448.936" y="515.069" width="206.247" height="263.07" rx="103.123" fill="white"/>
<rect x="518.387" y="569.788" width="101.019" height="151.528" rx="50.5094" fill="black"/>
<ellipse cx="524.7" cy="599.251" rx="29.4638" ry="31.5684" fill="white"/>
<path d="M845.016 883.571C840.188 899.722 830.381 913.935 816.994 924.179C803.606 934.423 787.324 940.175 770.473 940.614C753.622 941.052 737.063 936.155 723.161 926.62C709.259 917.086 698.726 903.403 693.064 887.525" stroke="#44190E" stroke-width="27.3592" stroke-linecap="round"/>
<path d="M768.839 744.67C744.637 745.372 696.443 754.983 697.284 787.814C698.337 828.853 745.69 847.794 768.839 847.794C791.989 847.794 839.342 828.853 840.394 787.814C841.236 754.983 793.042 745.372 768.839 744.67Z" fill="#44190E"/>
<path d="M484.715 445.563C496.526 431.281 513.223 421.899 531.564 419.238C549.904 416.578 568.579 420.829 583.961 431.166" stroke="#44190E" stroke-width="31.5684" stroke-linecap="round"/>
<path d="M1051.17 458.19C1039.36 443.908 1022.66 434.526 1004.32 431.865C985.982 429.205 967.307 433.456 951.925 443.793" stroke="#44190E" stroke-width="31.5684" stroke-linecap="round"/>
</svg>
